<svg width="19" height="10" viewBox="0 0 19 10" fill="none" xmlns="http://www.w3.org/2000/svg">
<path d="M0.327497 0.544093H3.47316C3.53893 0.543998 3.60316 0.561737 3.65731 0.594949C3.71146 0.62816 3.75295 0.675267 3.77626 0.729993C4.12442 1.52827 5.57027 4.65211 6.89326 4.90726C7.87628 4.90726 7.52812 0.751863 6.27887 0.751863C5.9512 0.751863 6.86049 0.23426 6.92193 0.21239C8.08287 -0.0707967 9.30805 -0.0707967 10.469 0.21239C11.0957 0.445676 11.2022 1.09815 11.2185 1.6522C11.2349 2.20625 10.5222 4.56827 11.4602 4.82343C12.689 5.15878 14.27 1.72875 14.6386 0.886731C14.6626 0.832687 14.7044 0.786358 14.7585 0.75383C14.8126 0.721303 14.8765 0.704098 14.9417 0.704476H18.4438C18.4979 0.704326 18.5512 0.716106 18.5989 0.738765C18.6467 0.761423 18.6874 0.794256 18.7174 0.834328C18.7474 0.874401 18.7658 0.920466 18.771 0.96841C18.7761 1.01635 18.7678 1.06468 18.7469 1.10908C18.0255 2.57358 17.1606 3.97872 16.1623 5.30822C16.0774 5.41794 16.0376 5.55032 16.0496 5.68309C16.0615 5.81587 16.1245 5.94093 16.2279 6.03724C17.2764 7.036 20.1436 9.86458 18.5052 9.86458H14.9704C14.8791 9.86478 14.7887 9.84766 14.7054 9.81435C14.622 9.78104 14.5476 9.7323 14.4871 9.6714C13.9382 9.13192 12.3408 7.63015 11.6199 7.75043C11.0219 7.84885 10.9646 8.75283 10.9933 9.34334C11.0023 9.49569 10.9439 9.64513 10.8306 9.7596C10.7173 9.87408 10.558 9.94448 10.3871 9.95571C9.7604 9.98852 8.90436 10.0031 8.82653 9.99945C6.32802 9.8573 4.84939 8.37374 3.4363 6.71887C1.95609 4.9644 0.801421 3.01016 0.0162065 0.930472C0.000156827 0.886467 -0.00404804 0.839722 0.00393097 0.794005C0.01191 0.748289 0.0318497 0.70488 0.0621419 0.667281C0.0924342 0.629681 0.132231 0.598943 0.178324 0.577545C0.224416 0.556148 0.275514 0.544689 0.327497 0.544093Z" fill="white"/>
</svg>
