<svg width="16" height="16" viewBox="0 0 16 16" fill="none" xmlns="http://www.w3.org/2000/svg">
<path d="M8 0.458984C3.83429 0.458984 0.457031 3.83625 0.457031 8.00195C0.457031 9.52607 0.91023 10.9477 1.68936 12.1335L0.717776 15.4239L4.13539 14.4771C5.26529 15.1538 6.58763 15.5418 8 15.5418C12.1657 15.5418 15.543 12.1646 15.543 7.99885C15.543 3.83625 12.1657 0.458984 8 0.458984Z" fill="white"/>
<path d="M12.1445 10.0726C12.1352 9.97328 12.0762 9.88637 11.9862 9.84602C11.3778 9.56665 10.7663 9.28728 10.1579 9.00791C10.0896 8.97687 10.0058 8.99239 9.95611 9.05137L9.13042 9.9826C9.06523 10.0571 8.9628 10.0819 8.87278 10.0447C8.44441 9.86774 7.86705 9.56975 7.28348 9.06689C6.58505 8.46779 6.17531 7.82524 5.94561 7.40619C6.06046 7.32859 6.37397 7.09578 6.51366 6.66431C6.51366 6.66121 6.51676 6.6581 6.51676 6.6581C6.60368 6.39115 6.58505 6.10247 6.48883 5.83862C6.32431 5.40094 5.99527 4.55352 5.86801 4.42315C5.84628 4.40142 5.82144 4.37969 5.82144 4.37969C5.72832 4.29588 5.60726 4.24932 5.47999 4.24311C5.43654 4.24001 5.38997 4.24001 5.34031 4.24001C5.19752 4.2369 5.07025 4.2369 4.97713 4.24932C4.71328 4.28657 4.52083 4.4635 4.39977 4.6125C4.25387 4.78943 4.08004 5.05328 3.96519 5.40094C3.95588 5.43198 3.94657 5.45992 3.93725 5.49096C3.80999 5.93174 3.83482 6.40357 3.98692 6.83814C4.12971 7.24478 4.33768 7.72902 4.6512 8.2412C5.182 9.11345 5.75936 9.65356 6.15048 10.0105C6.59126 10.4172 7.13758 10.9169 8.00363 11.3329C8.80449 11.7178 9.53085 11.8606 10.0182 11.9196C10.2169 11.9382 10.5831 11.9413 11.0022 11.783C11.1946 11.7085 11.3561 11.6185 11.4864 11.5222C11.831 11.277 12.0731 10.9076 12.1352 10.4917C12.1352 10.4886 12.1352 10.4855 12.1352 10.4824C12.1569 10.324 12.1538 10.1875 12.1445 10.0726Z" fill="#00A76B"/>
</svg>
